<?xml version="1.0" encoding="utf-8"?>
<!-- Generator: Adobe Illustrator 24.0.2, SVG Export Plug-In . SVG Version: 6.00 Build 0)  -->
<svg version="1.1" id="Capa_1" xmlns="http://www.w3.org/2000/svg" xmlns:xlink="http://www.w3.org/1999/xlink" x="0px" y="0px"
	 viewBox="0 0 841.4 593.4" style="enable-background:new 0 0 841.4 593.4;" xml:space="preserve">
<style type="text/css">
	.st0{clip-path:url(#SVGID_2_);}
	.st1{fill:url(#SVGID_3_);}
	.st2{fill:url(#SVGID_4_);}
	.st3{fill:url(#SVGID_5_);}
	.st4{fill:url(#SVGID_6_);}
	.st5{fill:url(#SVGID_7_);}
	.st6{fill:url(#SVGID_8_);}
	.st7{fill:none;stroke:#FFFFFF;stroke-width:2;stroke-miterlimit:10;}
	.st8{fill:url(#SVGID_9_);}
	.st9{fill:#4421C2;}
	.st10{fill:url(#SVGID_10_);}
	.st11{fill:url(#SVGID_11_);}
	.st12{fill:url(#SVGID_12_);}
	.st13{fill:url(#SVGID_13_);}
	.st14{fill:url(#SVGID_14_);}
	.st15{fill:#480094;}
	.st16{fill:url(#SVGID_15_);}
	.st17{fill:#6940FF;}
	.st18{fill:url(#SVGID_16_);}
	.st19{fill:none;stroke:#FFFFFF;stroke-width:0.99;stroke-linecap:round;stroke-linejoin:round;}
	.st20{fill:none;stroke:#FFFFFF;stroke-width:2;stroke-linecap:round;stroke-linejoin:round;}
</style>
<title>3513738</title>
<g>
	<g id="BACKGROUND">
		<g>
			<defs>
				<rect id="SVGID_1_" x="-4" y="0.2" width="845.4" height="593.2"/>
			</defs>
			<clipPath id="SVGID_2_">
				<use xlink:href="#SVGID_1_"  style="overflow:visible;"/>
			</clipPath>
			<g class="st0">
				
					<linearGradient id="SVGID_3_" gradientUnits="userSpaceOnUse" x1="59.0458" y1="658.8825" x2="778.3842" y2="-60.4558" gradientTransform="matrix(1 0 0 -1 0 596)">
					<stop  offset="0" style="stop-color:#4421C2"/>
					<stop  offset="0.45" style="stop-color:#6940FF"/>
					<stop  offset="1" style="stop-color:#05BCFF"/>
				</linearGradient>
				<rect x="-4" y="0.2" class="st1" width="845.4" height="593.2"/>
				
					<linearGradient id="SVGID_4_" gradientUnits="userSpaceOnUse" x1="101.6127" y1="554.1559" x2="441.7574" y2="554.1559" gradientTransform="matrix(1 0 0 -1 44.22 628.31)">
					<stop  offset="0" style="stop-color:#19BAFA"/>
					<stop  offset="0.24" style="stop-color:#5EA2FB"/>
					<stop  offset="0.51" style="stop-color:#A28BFB"/>
					<stop  offset="0.74" style="stop-color:#D47AFC"/>
					<stop  offset="0.91" style="stop-color:#F36FFC"/>
					<stop  offset="1" style="stop-color:#FF6BFC"/>
				</linearGradient>
				<path class="st2" d="M163.8,11c17.9,12.2,34.1,27.1,49.8,42.2c16.3,15.7,32.1,31.9,48.9,47.1c14.8,13.3,30.4,25.9,48.3,34.3
					c18.5,8.7,38.7,14.2,59.1,13.5c17-0.6,33.6-6,48.1-15.4c30-19.6,48.8-54,59.1-88.7c4.2-14.3,7.2-29,8.9-43.8H145.8
					C152,3.4,158,7,163.8,11z"/>
				<g>
					
						<linearGradient id="SVGID_5_" gradientUnits="userSpaceOnUse" x1="2570.6033" y1="-2190.3174" x2="2971.9109" y2="-2190.3174" gradientTransform="matrix(6.123234e-17 1 1 -6.123234e-17 2880.0999 -2570.4399)">
						<stop  offset="0" style="stop-color:#FFF538"/>
						<stop  offset="1" style="stop-color:#FF6BFC"/>
					</linearGradient>
					<path class="st3" d="M558.1,11.8c34,22.9,60.2,56.7,77.5,94.9c17.9,39.4,22.3,82.4,35.7,123.4
						c26.1,79.5,82.8,169.5,170.1,171.4V0.2H538.1C545,3.6,551.7,7.5,558.1,11.8z"/>
					<g>
						
							<image style="overflow:visible;opacity:0.25;enable-background:new    ;" width="832" height="996" xlink:href="D2D3AAC7.png"  transform="matrix(0.2705 0 0 0.2848 651.8959 -18.607)">
						</image>
						
							<linearGradient id="SVGID_6_" gradientUnits="userSpaceOnUse" x1="2570.6033" y1="-2124.5037" x2="2797.7576" y2="-2124.5037" gradientTransform="matrix(6.123234e-17 1 1 -6.123234e-17 2880.0999 -2570.4399)">
							<stop  offset="0" style="stop-color:#4421C2"/>
							<stop  offset="0.45" style="stop-color:#6940FF"/>
							<stop  offset="1" style="stop-color:#05BCFF"/>
						</linearGradient>
						<path class="st4" d="M681,6.7c19.3,13,34.1,32.1,43.9,53.7c10.1,22.3,12.6,46.7,20.3,69.8c14.8,45,46.9,96,96.3,97V0.2H669.7
							C673.6,2.1,677.4,4.3,681,6.7z"/>
					</g>
				</g>
				<g>
					
						<linearGradient id="SVGID_7_" gradientUnits="userSpaceOnUse" x1="3287.6909" y1="-2760.2588" x2="2878.73" y2="-2351.2979" gradientTransform="matrix(6.123234e-17 1 1 -6.123234e-17 2880.0999 -2570.4399)">
						<stop  offset="0" style="stop-color:#FFF538"/>
						<stop  offset="1" style="stop-color:#FF6BFC"/>
					</linearGradient>
					<path class="st5" d="M610.1,494.9c-36.1-62.2-60.7-131.1-98.4-192.4c-35.6-58-85.9-102.5-155.3-91.9
						c-53.9,8.3-85.2,46.1-115.5,90.3c-26.7,39-53.4,77.1-97.7,94.5C94.3,414.7,40.1,408.6-4,383.2v210.2h705.5
						C663.2,572.7,633.7,535.6,610.1,494.9z"/>
					<g>
						
							<image style="overflow:visible;opacity:0.25;enable-background:new    ;" width="2727" height="1224" xlink:href="D2D3AAC5.png"  transform="matrix(0.2705 0 0 0.2848 89.2566 304.1073)">
						</image>
						
							<linearGradient id="SVGID_8_" gradientUnits="userSpaceOnUse" x1="271.3685" y1="205.2307" x2="598.0371" y2="-121.4378" gradientTransform="matrix(1 0 0 -1 44.22 628.31)">
							<stop  offset="0" style="stop-color:#4421C2"/>
							<stop  offset="0.45" style="stop-color:#6940FF"/>
							<stop  offset="1" style="stop-color:#05BCFF"/>
						</linearGradient>
						<path class="st6" d="M550.3,341.6c-78.7-27.7-166.6,22.9-223.9,80.1c-58.1,58-112.9,130.2-181.1,171.7h653.3
							C674.6,553.9,682.5,388.1,550.3,341.6z"/>
					</g>
				</g>
				<path class="st7" d="M-23.4-34.8c182,32.8,254.3,223.2,362.8,355.7c6.6,7.4,13.4,14.7,20.4,21.7
					c105.1,104.9,259,134.8,393.6,78.5c35.9-15.1,76.4-35.2,107.4-59.6"/>
				<g>
					
						<linearGradient id="SVGID_9_" gradientUnits="userSpaceOnUse" x1="30.0786" y1="693.3348" x2="742.8617" y2="-19.4483" gradientTransform="matrix(1 0 0 -1 44.22 628.31)">
						<stop  offset="0" style="stop-color:#FFFFFD;stop-opacity:1.000000e-02"/>
						<stop  offset="9.000000e-02" style="stop-color:#FFFEE6;stop-opacity:0.13"/>
						<stop  offset="0.28" style="stop-color:#FFFBB6;stop-opacity:0.39"/>
						<stop  offset="0.46" style="stop-color:#FEF88E;stop-opacity:0.61"/>
						<stop  offset="0.63" style="stop-color:#FEF670;stop-opacity:0.78"/>
						<stop  offset="0.78" style="stop-color:#FEF559;stop-opacity:0.9"/>
						<stop  offset="0.91" style="stop-color:#FEF44C;stop-opacity:0.97"/>
						<stop  offset="1" style="stop-color:#FEF447"/>
					</linearGradient>
					<path class="st8" d="M791.5,362.9c-40.4-11.9-84.2-11.8-124.2,1.9c-40.7,13.9-73.5,42.9-102.1,75.6
						c-28.6,32.6-53.4,68.7-83,100.3c-14.4,15.4-30.1,29.7-47.3,41.4c-6.2,4.1-12.5,7.9-19.1,11.3h425.6V385.2
						C825.8,375.5,809,368,791.5,362.9z"/>
				</g>
				<g>
					<path class="st9" d="M841.4,503.2H606.4l-2.7,3.4h237.8V503.2z"/>
					<path class="st9" d="M825.9,486.1H620.2l-2.8,3.4h224.1v-3.4H825.9z"/>
					<path class="st9" d="M825.9,469H635c-1,1.1-2.1,2.3-3.1,3.4h209.5V469H825.9z"/>
					<path class="st9" d="M825.9,451.9H652.2c-1.2,1.1-2.5,2.3-3.7,3.4h193v-3.4H825.9z"/>
					<path class="st9" d="M825.9,434.8H673.6c-1.6,1.1-3.2,2.3-4.8,3.4h172.6v-3.4H825.9z"/>
					<path class="st9" d="M825.9,494.6H613.2l-2.7,3.4h231v-3.4H825.9z"/>
					<path class="st9" d="M825.9,477.6H627.4c-1,1.2-2,2.3-2.9,3.4h217v-3.4H825.9z"/>
					<path class="st9" d="M825.9,460.5H643.2c-1.1,1.1-2.3,2.3-3.4,3.4h201.6v-3.4H825.9z"/>
					<path class="st9" d="M825.9,443.4H662.1c-1.4,1.1-2.8,2.3-4.1,3.4h183.4v-3.4H825.9z"/>
					<path class="st9" d="M825.9,426.3H687.7c-2,1.1-4.1,2.2-6,3.4h153.7c-2.1-1.2-4.3-2.4-6.5-3.4H825.9z"/>
					<path class="st9" d="M825.9,554.4H563.6c-1.1,1.2-2.2,2.3-3.3,3.4h281.1v-3.4H825.9z"/>
					<path class="st9" d="M825.9,537.4h-247l-2.9,3.4h265.5v-3.4H825.9z"/>
					<path class="st9" d="M825.9,520.3H592.9l-2.7,3.4h251.3v-3.4H825.9z"/>
					<path class="st9" d="M825.9,563H555.1c-1.2,1.1-2.4,2.3-3.6,3.4h289.9V563H825.9z"/>
					<path class="st9" d="M825.9,546H571.5c-1,1.2-2,2.3-3.1,3.4h273V546H825.9z"/>
					<path class="st9" d="M825.9,528.8H586l-2.8,3.4h258.3v-3.4H825.9z"/>
					<path class="st9" d="M825.9,511.7H599.6l-2.7,3.4h244.5v-3.4L825.9,511.7z"/>
					<path class="st9" d="M825.4,571.5H545.8c-1.3,1.2-2.7,2.3-4.1,3.4h299.7v-3.4H825.4z"/>
					<path class="st9" d="M808.2,417.8h-101c-3,1-5.9,2.2-8.8,3.4h119.1C814.4,420,811.3,418.8,808.2,417.8z"/>
					<path class="st9" d="M744.8,412.6h43.8c-20.7-4.1-41.9-4.1-62.6,0H744.8z"/>
					<path class="st9" d="M582.4,592h259v-3.4H522.6c-1.9,1.2-3.9,2.3-5.9,3.4L582.4,592L582.4,592z"/>
					<path class="st9" d="M582.4,583.5h259v-3.4H535.2c-1.6,1.2-3.1,2.3-4.7,3.4H582.4z"/>
				</g>
				<g>
					
						<linearGradient id="SVGID_10_" gradientUnits="userSpaceOnUse" x1="-172.9521" y1="503.4146" x2="562.9539" y2="-232.4914" gradientTransform="matrix(1 0 0 -1 44.22 628.31)">
						<stop  offset="0" style="stop-color:#FFFFFD;stop-opacity:1.000000e-02"/>
						<stop  offset="9.000000e-02" style="stop-color:#FFFEE6;stop-opacity:0.13"/>
						<stop  offset="0.28" style="stop-color:#FFFBB6;stop-opacity:0.39"/>
						<stop  offset="0.46" style="stop-color:#FEF88E;stop-opacity:0.61"/>
						<stop  offset="0.63" style="stop-color:#FEF670;stop-opacity:0.78"/>
						<stop  offset="0.78" style="stop-color:#FEF559;stop-opacity:0.9"/>
						<stop  offset="0.91" style="stop-color:#FEF44C;stop-opacity:0.97"/>
						<stop  offset="1" style="stop-color:#FEF447"/>
					</linearGradient>
					<path class="st10" d="M96.9,527.2c10.1-31.4,34.6-53.4,59.7-71.7c12.4-9.1,25.1-18.1,38-26.4c11.8-7.5,23.5-15.2,34.9-23.3
						c24.5-17.3,48.5-36.8,66.6-61.4c18-24.3,28.6-53.8,24.9-84.9c-3.4-27.8-18.2-50.5-39.6-66.6s-46.2-25.9-70.5-35.7
						c-23.4-9.5-47.3-18.5-68.1-33.6C117.4,105,93.7,82.1,75.5,55.5C64.3,39,54.7,20.1,51,0.2H-4v593.2H97.5
						C91.7,571.7,89.8,549.2,96.9,527.2z"/>
				</g>
				<g>
					
						<image style="overflow:visible;opacity:8.000000e-02;enable-background:new    ;" width="760" height="1330" xlink:href="D2D3AACB.png"  transform="matrix(0.2705 0 0 0.2848 -21.089 -17.6341)">
					</image>
					
						<linearGradient id="SVGID_11_" gradientUnits="userSpaceOnUse" x1="2570.6033" y1="-2801.7754" x2="2906.5183" y2="-2801.7754" gradientTransform="matrix(6.123234e-17 1 1 -6.123234e-17 2880.0999 -2570.4399)">
						<stop  offset="0" style="stop-color:#4421C2"/>
						<stop  offset="0.45" style="stop-color:#6940FF"/>
						<stop  offset="1" style="stop-color:#05BCFF"/>
					</linearGradient>
					<path class="st11" d="M152.9,288.9c21.2-42.8-4.7-91.7-34.3-121.7s-61.1-55.4-85.3-90.7C17.3,53.2,4.8,27.4-4,0.2v318.6
						c0,0,44,21.2,78.8,16.6C107.1,331.1,138.9,317.1,152.9,288.9z"/>
				</g>
				<g>
					
						<linearGradient id="SVGID_12_" gradientUnits="userSpaceOnUse" x1="368.3907" y1="770.0294" x2="848.8714" y2="289.5488" gradientTransform="matrix(1 0 0 -1 44.22 628.31)">
						<stop  offset="0" style="stop-color:#FFFFFD;stop-opacity:1.000000e-02"/>
						<stop  offset="9.000000e-02" style="stop-color:#FFFEE6;stop-opacity:0.13"/>
						<stop  offset="0.28" style="stop-color:#FFFBB6;stop-opacity:0.39"/>
						<stop  offset="0.46" style="stop-color:#FEF88E;stop-opacity:0.61"/>
						<stop  offset="0.63" style="stop-color:#FEF670;stop-opacity:0.78"/>
						<stop  offset="0.78" style="stop-color:#FEF559;stop-opacity:0.9"/>
						<stop  offset="0.91" style="stop-color:#FEF44C;stop-opacity:0.97"/>
						<stop  offset="1" style="stop-color:#FEF447"/>
					</linearGradient>
					<path class="st12" d="M541.6,34.9c3.6,10.6,5.9,22.8,3.7,34c-1.8,9.2-6,17.7-10.6,25.7c-11.2,19.2-25.6,36-37.4,54.8
						c-10.2,16.3-20.4,36.4-14.9,56.5c2.9,10.3,8.9,19.3,17.2,25.5c7.5,5.6,16.5,7.9,25.6,7.7c10-0.1,19.9-2.9,29.3-6.5
						c10.3-4.1,20.3-8.9,29.9-14.5c9.3-5.3,18.3-11,27.4-16.6c7.4-4.7,14.8-9.4,22.5-13.4c28-14.6,57.8-26.5,88.8-31.4
						c27.2-4.3,56.2-3.6,82.6,5.5c12.7,4.5,24.8,10.8,36,18.6V0.2H521.6C530.4,10.2,537.1,22,541.6,34.9z"/>
				</g>
				<g>
					
						<image style="overflow:visible;opacity:0.25;enable-background:new    ;" width="1563" height="702" xlink:href="D2D3AACD.png"  transform="matrix(0.2705 0 0 0.2848 239.7431 427.4789)">
					</image>
					
						<linearGradient id="SVGID_13_" gradientUnits="userSpaceOnUse" x1="321.478" y1="-58.675" x2="516.6516" y2="136.5101" gradientTransform="matrix(1 0 0 -1 44.22 628.31)">
						<stop  offset="0" style="stop-color:#19BAFA"/>
						<stop  offset="0.24" style="stop-color:#5EA2FB"/>
						<stop  offset="0.51" style="stop-color:#A28BFB"/>
						<stop  offset="0.74" style="stop-color:#D47AFC"/>
						<stop  offset="0.91" style="stop-color:#F36FFC"/>
						<stop  offset="1" style="stop-color:#FF6BFC"/>
					</linearGradient>
					<path class="st13" d="M504.1,449.1c-45.1-15.9-95.5,13.1-128.3,45.9c-33.3,33.2-64.7,74.6-103.7,98.4h374.3
						C575.4,570.7,579.9,475.7,504.1,449.1z"/>
				</g>
				<g>
					
						<linearGradient id="SVGID_14_" gradientUnits="userSpaceOnUse" x1="-200.2787" y1="481.0467" x2="568.6113" y2="-287.8433" gradientTransform="matrix(1 0 0 -1 44.22 628.31)">
						<stop  offset="0" style="stop-color:#FFFFFD;stop-opacity:1.000000e-02"/>
						<stop  offset="9.000000e-02" style="stop-color:#FFFEE6;stop-opacity:0.13"/>
						<stop  offset="0.28" style="stop-color:#FFFBB6;stop-opacity:0.39"/>
						<stop  offset="0.46" style="stop-color:#FEF88E;stop-opacity:0.61"/>
						<stop  offset="0.63" style="stop-color:#FEF670;stop-opacity:0.78"/>
						<stop  offset="0.78" style="stop-color:#FEF559;stop-opacity:0.9"/>
						<stop  offset="0.91" style="stop-color:#FEF44C;stop-opacity:0.97"/>
						<stop  offset="1" style="stop-color:#FEF447"/>
					</linearGradient>
					<path class="st14" d="M181,348.2c2.2-24.5-4.3-49-18.4-68.6c-10.4-14.8-24.2-26.7-38.3-37.2c-30.2-22.4-63.8-39.5-92.6-63.9
						c-13-11-25-23.7-33.3-39.1c-0.9-1.6-1.6-3.2-2.4-4.8v353.6c30.2-1.9,59.8-9.6,87.5-22.7C129.3,443.8,175.4,404.3,181,348.2z"/>
				</g>
				<g>
					<path class="st15" d="M117.7,332.4H-4v3.4h122.2C118.1,334.6,118,333.5,117.7,332.4z"/>
					<path class="st15" d="M95.5,315.2H-4v3.4h118c-0.5-1.2-0.9-2.3-1.4-3.4H95.5z"/>
					<path class="st15" d="M95.5,298.2H-4v3.4h108.4c-0.9-1.2-1.8-2.3-2.8-3.4L95.5,298.2z"/>
					<path class="st15" d="M95.5,323.8H-4v3.4h120.7c-0.3-1.2-0.6-2.3-0.9-3.4H95.5z"/>
					<path class="st15" d="M95.5,306.7H-4v3.4h114c-0.7-1.2-1.3-2.3-2-3.4H95.5z"/>
					<path class="st15" d="M93.3,289.7H-4v3.4H96.8C95.7,291.9,94.5,290.7,93.3,289.7z"/>
					<path class="st15" d="M95.5,383.6H-4v3.4h107.9c0.8-1.2,1.6-2.3,2.3-3.4L95.5,383.6z"/>
					<path class="st15" d="M95.5,366.5H-4v3.4h117.2c0.5-1.1,0.9-2.3,1.3-3.4H95.5z"/>
					<path class="st15" d="M95.5,349.4H-4v3.4h121.9c0.2-1.1,0.3-2.3,0.4-3.4H95.5z"/>
					<path class="st15" d="M95.5,392.1H-4v3.4H97.1c1-1.1,2-2.3,2.9-3.4H95.5z"/>
					<path class="st15" d="M95.5,375.1H-4v3.4h113.2c0.6-1.1,1.2-2.3,1.8-3.4H95.5z"/>
					<path class="st15" d="M95.5,358H-4v3.4h120.1c0.3-1.1,0.6-2.3,0.8-3.4H95.5z"/>
					<path class="st15" d="M94.9,340.9H-4v3.4h122.6c0-1.2,0-2.3,0-3.4L94.9,340.9L94.9,340.9z"/>
					<path class="st15" d="M13.8,400.7H-4v3.4h92.6c1.2-1.1,2.4-2.3,3.6-3.4H13.8z"/>
					<path class="st15" d="M13.8,250.3h23.3c-1.6-1.1-3.3-2.3-4.9-3.4H-4v3.4H13.8z"/>
					<path class="st15" d="M13.8,233.2h1.4c-1.2-1.1-2.4-2.3-3.5-3.4H-4v3.4H13.8z"/>
					<path class="st15" d="M0.5,216.1c-0.8-1.1-1.4-2.3-2.1-3.4H-4v3.4H0.5z"/>
					<path class="st15" d="M13.8,241.8h11.6c-1.4-1.1-2.9-2.3-4.3-3.4H-4v3.4H13.8z"/>
					<path class="st15" d="M6.9,224.7c-0.9-1.1-1.9-2.3-2.8-3.4H-4v3.4H6.9z"/>
					<path class="st15" d="M13.8,284.5h73.6c-1.4-1.2-2.9-2.3-4.3-3.4H-4v3.4H13.8z"/>
					<path class="st15" d="M13.8,267.4h49.6L58,264H-4v3.4H13.8z"/>
					<path class="st15" d="M13.8,276H76c-1.6-1.1-3.3-2.3-4.9-3.4H-4v3.4H13.8z"/>
					<path class="st15" d="M-4,258.8h54c-1.8-1.1-3.5-2.3-5.3-3.4H-4V258.8z"/>
					<path class="st15" d="M13.8,421.2h51c1.9-1.1,3.8-2.2,5.6-3.4H-4v3.4H13.8z"/>
					<path class="st15" d="M13.8,412.6H78c1.5-1.1,3-2.2,4.5-3.4H-4v3.4H13.8z"/>
					<path class="st15" d="M13.8,438.3H21c4.2-1,8.4-2.1,12.5-3.4H-4v3.4H13.8z"/>
					<path class="st15" d="M-4,429.7h51.5c2.1-0.9,4.3-1.8,6.4-2.8l1.2-0.6H-4V429.7z"/>
				</g>
				<g>
					
						<linearGradient id="SVGID_15_" gradientUnits="userSpaceOnUse" x1="202.147" y1="796.7055" x2="840.3483" y2="158.5043" gradientTransform="matrix(1 0 0 -1 44.22 628.31)">
						<stop  offset="0" style="stop-color:#FFFFFD;stop-opacity:1.000000e-02"/>
						<stop  offset="9.000000e-02" style="stop-color:#FFFEE6;stop-opacity:0.13"/>
						<stop  offset="0.28" style="stop-color:#FFFBB6;stop-opacity:0.39"/>
						<stop  offset="0.46" style="stop-color:#FEF88E;stop-opacity:0.61"/>
						<stop  offset="0.63" style="stop-color:#FEF670;stop-opacity:0.78"/>
						<stop  offset="0.78" style="stop-color:#FEF559;stop-opacity:0.9"/>
						<stop  offset="0.91" style="stop-color:#FEF44C;stop-opacity:0.97"/>
						<stop  offset="1" style="stop-color:#FEF447"/>
					</linearGradient>
					<path class="st16" d="M328.1,118.7c12.7,28,23,57.1,36.3,84.8c13.6,28.3,31,56.2,55.5,75.2c22.9,17.8,51,26.7,79.4,25.1
						c28.3-1.5,55.7-12.6,78.7-29.8c22.8-17,41.7-39.7,56.7-64.5s25.8-51.6,33.9-79.4c8.3-28.4,13.7-57.6,17.4-87
						c1.7-14.2,3.1-28.6,4.1-43H214.2c23,11.4,45,24.9,63.7,43.1C299.7,64.5,315.4,90.7,328.1,118.7z"/>
				</g>
				<g>
					<path class="st17" d="M611.7,76.1H368.1c0.6,1.2,1.1,2.3,1.6,3.4h241.1C611.1,78.3,611.5,77.2,611.7,76.1z"/>
					<path class="st17" d="M582.4,59H358.8c0.7,1.1,1.4,2.3,2,3.4h253.9c0.2-1.1,0.5-2.3,0.7-3.4H582.4z"/>
					<path class="st17" d="M582.4,41.9H346.9c0.9,1.2,1.8,2.3,2.6,3.4h268.2c0.2-1.2,0.3-2.3,0.5-3.4H582.4z"/>
					<path class="st17" d="M582.4,24.8h-252c1.3,1.1,2.6,2.3,3.8,3.4h285.9c0.1-1.2,0.3-2.3,0.4-3.4L582.4,24.8z"/>
					<path class="st17" d="M582.4,7.7H306.1c1.9,1.1,3.8,2.2,5.6,3.4h310.2c0.1-1.2,0.2-2.3,0.3-3.4L582.4,7.7z"/>
					<path class="st17" d="M582.4,67.5H363.8c0.6,1.2,1.2,2.3,1.8,3.4h247.3c0.3-1.2,0.5-2.3,0.8-3.4H582.4z"/>
					<path class="st17" d="M582.4,50.4H353.3c0.8,1.1,1.5,2.3,2.3,3.4h260.8c0.2-1.2,0.4-2.3,0.6-3.4H582.4z"/>
					<path class="st17" d="M582.4,33.4h-243c1.1,1.1,2.1,2.3,3.1,3.4H619l0.4-3.4H582.4z"/>
					<path class="st17" d="M582.4,16.3H319.5c1.5,1.1,3,2.3,4.6,3.4h297c0.1-1.2,0.2-2.3,0.3-3.4H582.4z"/>
					<path class="st17" d="M582.4,144.4H397.8c0.6,1.1,1.1,2.3,1.7,3.4H583c0.4-0.7,0.9-1.4,1.3-2.1c0.3-0.5,0.5-0.9,0.8-1.4H582.4z
						"/>
					<path class="st17" d="M582.4,127.3H390c0.5,1.2,1,2.3,1.5,3.4h201c0.6-1.2,1.1-2.3,1.6-3.4H582.4z"/>
					<path class="st17" d="M582.4,110.2H382.8l1.4,3.4H600c0.5-1.1,0.9-2.3,1.3-3.4H582.4z"/>
					<path class="st17" d="M582.4,93.1H375.8l1.5,3.4h228.8c0.4-1.1,0.7-2.3,1-3.4H582.4z"/>
					<path class="st17" d="M582.4,135.9H393.8c0.5,1.2,1.1,2.3,1.6,3.4H588c0.6-1.1,1.2-2.3,1.8-3.4H582.4z"/>
					<path class="st17" d="M582.4,118.8H386.3l1.4,3.4h208.7c0.5-1.2,1-2.3,1.5-3.4H582.4z"/>
					<path class="st17" d="M582.4,101.7H379.3c0.5,1.2,0.9,2.3,1.4,3.4h222.4c0.4-1.2,0.8-2.3,1.1-3.4H582.4z"/>
					<path class="st17" d="M582.4,84.6H372c0.5,1.2,1,2.3,1.5,3.4h235c0.3-1.2,0.6-2.3,0.9-3.4H582.4z"/>
					<path class="st17" d="M573.6,161.5H407.2c0.7,1.2,1.4,2.3,2.2,3.4H571C571.9,163.8,572.8,162.6,573.6,161.5z"/>
					<path class="st17" d="M500.7,152.9h-98.5c0.6,1.2,1.3,2.3,1.9,3.4h173.2c0.8-1.1,1.6-2.3,2.3-3.4H500.7z"/>
					<path class="st17" d="M501.3,195.6h-63.9c1.7,1.2,3.4,2.3,5.1,3.4h89.1c2-1.1,3.9-2.2,5.8-3.4H501.3z"/>
					<path class="st17" d="M501.3,204.2h-49.1c2.9,1.3,5.9,2.4,8.9,3.4h50.1c3.3-1,6.5-2.1,9.7-3.4H501.3z"/>
					<path class="st17" d="M501.3,187.1h-74c1.2,1.2,2.4,2.3,3.7,3.4h114c1.5-1.1,2.9-2.3,4.4-3.4H501.3z"/>
					<path class="st17" d="M500.7,178.6h-81.4c1,1.2,2,2.3,3,3.4h132.8c1.2-1.1,2.4-2.3,3.6-3.4H500.7z"/>
					<path class="st17" d="M500.7,170h-87.9c0.8,1.2,1.6,2.3,2.5,3.4h148.4c1-1.1,2.1-2.3,3-3.4H500.7z"/>
					<path class="st17" d="M339,2.5h283.6c0-0.8,0.1-1.6,0.2-2.4H292c1.6,0.8,3.2,1.6,4.8,2.4H339z"/>
				</g>
				<g>
					
						<linearGradient id="SVGID_16_" gradientUnits="userSpaceOnUse" x1="23.0467" y1="325.5062" x2="425.5953" y2="-77.0537" gradientTransform="matrix(1 0 0 -1 44.22 628.31)">
						<stop  offset="0" style="stop-color:#FFFFFD;stop-opacity:1.000000e-02"/>
						<stop  offset="9.000000e-02" style="stop-color:#FFFEE6;stop-opacity:0.13"/>
						<stop  offset="0.28" style="stop-color:#FFFBB6;stop-opacity:0.39"/>
						<stop  offset="0.46" style="stop-color:#FEF88E;stop-opacity:0.61"/>
						<stop  offset="0.63" style="stop-color:#FEF670;stop-opacity:0.78"/>
						<stop  offset="0.78" style="stop-color:#FEF559;stop-opacity:0.9"/>
						<stop  offset="0.91" style="stop-color:#FEF44C;stop-opacity:0.97"/>
						<stop  offset="1" style="stop-color:#FEF447"/>
					</linearGradient>
					<path class="st18" d="M443.6,520.6c-3.9-14.2-12-26.7-23-35.8c-12.5-10.1-27.8-15.5-43.6-15.3c-15.7,0.1-31.2,4.9-45.3,11.8
						c-31.4,15.3-56.7,41.6-82.6,65.3c-13,11.9-26.5,23.6-41.1,33.4c-3.7,2.5-7.5,4.9-11.3,7.1c-3.6,2.1-7,4.3-10.7,6.3H438
						c3.7-9.8,6.3-20,7.8-30.4C447.8,549,447.5,534.3,443.6,520.6z"/>
				</g>
				<path class="st7" d="M-53.3,478.9c51.4,27.8,109.9,37.6,167.7,39.5c57.8,1.9,115.4-3.6,173.1-4.5c54.3-0.8,110.2,2.8,159.9,25.9
					c49.7,23.2,92.5,69.4,100.3,126"/>
				<g>
					
						<image style="overflow:visible;opacity:0.25;enable-background:new    ;" width="1263" height="1402" xlink:href="D2D3AACF.png"  transform="matrix(0.2705 0 0 0.2848 552.958 -38.1723)">
					</image>
					<path class="st7" d="M866.2,298.7c-72.1,13-114.7-45.1-139.9-108.1c-12.7-31.9-21.9-65.1-32.5-97.7
						c-14.6-44.6-37.2-88-84.6-100.3"/>
				</g>
				<g>
					<line class="st19" x1="640.6" y1="295.6" x2="640.6" y2="305.3"/>
					<line class="st19" x1="645.2" y1="300.5" x2="636" y2="300.5"/>
				</g>
				<g>
					<line class="st19" x1="211.3" y1="219.5" x2="211.3" y2="229.2"/>
					<line class="st19" x1="215.9" y1="224.3" x2="206.7" y2="224.3"/>
				</g>
				<g>
					<line class="st19" x1="47.3" y1="541.6" x2="47.3" y2="551.3"/>
					<line class="st19" x1="51.9" y1="546.5" x2="42.7" y2="546.5"/>
				</g>
				<g>
					<line class="st19" x1="390.3" y1="38.3" x2="390.3" y2="48.1"/>
					<line class="st19" x1="394.9" y1="43.2" x2="385.7" y2="43.2"/>
				</g>
				<g>
					<line class="st19" x1="779.5" y1="45.6" x2="779.5" y2="55.4"/>
					<line class="st19" x1="784.2" y1="50.5" x2="774.9" y2="50.5"/>
				</g>
				<g>
					<line class="st20" x1="750.5" y1="500.6" x2="750.5" y2="520.4"/>
					<line class="st20" x1="759.9" y1="510.5" x2="741.1" y2="510.5"/>
				</g>
				<g>
					<line class="st20" x1="69.2" y1="38" x2="69.2" y2="57.8"/>
					<line class="st20" x1="78.6" y1="47.9" x2="59.8" y2="47.9"/>
				</g>
			</g>
		</g>
	</g>
</g>
</svg>
