<svg id="SvgjsSvg1050" width="288" height="288" xmlns="http://www.w3.org/2000/svg" version="1.1" xmlns:xlink="http://www.w3.org/1999/xlink" xmlns:svgjs="http://svgjs.com/svgjs"><defs id="SvgjsDefs1051"></defs><g id="SvgjsG1052" transform="matrix(0.9167,0,0,0.9167,11.995200000000011,11.64084960937501)"><svg xmlns="http://www.w3.org/2000/svg" xmlns:xlink="http://www.w3.org/1999/xlink" width="288" height="288" viewBox="0 0 32 32"><defs><linearGradient id="a"><stop offset="0" stop-color="#107a8b" class="stopColor000092 svgShape"></stop><stop offset="1" stop-color="#2cb978" class="stopColorff00f3 svgShape"></stop></linearGradient><linearGradient id="b" x1="6.5" x2="21.571" y1="15.527" y2="15.527" gradientUnits="userSpaceOnUse" xlink:href="#a"></linearGradient></defs><path style="line-height:normal;text-indent:0;text-align:start;text-decoration-line:none;text-decoration-style:solid;text-decoration-color:#000;text-transform:none;block-progression:tb;isolation:auto;mix-blend-mode:normal" fill="url(#b)" d="M 16 1.0273438 C 10.770971 1.0273438 6.500011 5.0997187 6.5 10.136719 C 6.5 14.071719 7.854973 15.944891 9.1230469 17.400391 C 10.316456 18.770191 11.356768 19.747853 11.476562 22.126953 C 10.909532 22.341853 10.5 22.889244 10.5 23.527344 C 10.5 24.174144 10.921006 24.724994 11.5 24.933594 L 11.5 25.527344 C 11.5 28.011744 13.515649 30.027344 16 30.027344 C 18.484351 30.027344 20.5 28.011744 20.5 25.527344 L 20.5 24.933594 C 21.078994 24.724994 21.5 24.174144 21.5 23.527344 C 21.5 22.889244 21.090468 22.341853 20.523438 22.126953 C 20.643231 19.747853 21.683544 18.770191 22.876953 17.400391 C 24.145028 15.944891 25.5 14.071719 25.5 10.136719 C 25.499989 5.0997187 21.229029 1.0273438 16 1.0273438 z M 16 2.0273438 C 20.712091 2.0273438 24.499991 5.6647188 24.5 10.136719 C 24.5 13.853919 23.354972 15.330141 22.123047 16.744141 C 20.411653 18.381341 19.808994 19.645744 19.5 22.027344 L 12.5 22.027344 C 12.42742 19.890744 11.409822 18.053741 9.8769531 16.744141 C 8.645028 15.330141 7.5 13.853919 7.5 10.136719 C 7.50001 5.6647188 11.287909 2.0273438 16 2.0273438 z M 12 23.027344 L 20 23.027344 C 20.285656 23.027344 20.5 23.241744 20.5 23.527344 C 20.5 23.813044 20.285656 24.027344 20 24.027344 L 12 24.027344 C 11.714344 24.027344 11.5 23.813044 11.5 23.527344 C 11.5 23.241744 11.714344 23.027344 12 23.027344 z M 12.5 25.027344 L 19.5 25.027344 L 19.5 25.527344 C 19.5 27.475044 17.947649 29.027344 16 29.027344 C 14.052351 29.027344 12.5 27.475044 12.5 25.527344 L 12.5 25.027344 z " color="#000" font-family="sans-serif" font-weight="400" overflow="visible"></path></svg></g></svg>